<svg width="20" height="20" viewBox="0 0 20 20" fill="none" xmlns="http://www.w3.org/2000/svg"><path fill-rule="evenodd" clip-rule="evenodd" d="M1.45831 4.16669C1.11314 4.16669 0.833313 4.44651 0.833313 4.79169V14.375C0.833313 14.7202 1.11314 15 1.45831 15H3.49158C3.57186 16.1052 4.49366 16.978 5.6207 16.978C6.74775 16.978 7.66955 16.1052 7.74983 15H12.0833L12.0867 15H13.219C13.2993 16.1054 14.2222 16.978 15.3481 16.978C16.4751 16.978 17.3969 16.1052 17.4772 15H18.9134C19.1184 15 19.3103 14.8995 19.4271 14.731C19.5438 14.5626 19.5706 14.3476 19.4986 14.1556L16.8172 7.00285C16.7257 6.75887 16.4925 6.59723 16.232 6.59723H12.7083V4.79169C12.7083 4.44651 12.4285 4.16669 12.0833 4.16669H1.45831ZM17.1822 13.75H18.0116L15.7988 7.84723H12.7083V13.75H13.5142C13.887 13.1262 14.5689 12.7084 15.3481 12.7084C16.128 12.7084 16.8097 13.1263 17.1822 13.75ZM5.6207 12.7084C4.84077 12.7084 4.15912 13.1263 3.78662 13.75H2.08331V5.41669H11.4583V13.75H7.45479C7.08229 13.1263 6.40064 12.7084 5.6207 12.7084ZM5.6207 13.9584C5.13174 13.9584 4.7359 14.3547 4.7359 14.8432C4.7359 15.3317 5.13174 15.728 5.6207 15.728C6.10967 15.728 6.50551 15.3317 6.50551 14.8432C6.50551 14.3547 6.10967 13.9584 5.6207 13.9584ZM14.4633 14.8432C14.4633 14.3549 14.8598 13.9584 15.3481 13.9584C15.837 13.9584 16.2329 14.3547 16.2329 14.8432C16.2329 15.3317 15.837 15.728 15.3481 15.728C14.8598 15.728 14.4633 15.3314 14.4633 14.8432Z" fill="#26AA99"></path></svg>